<svg xmlns="http://www.w3.org/2000/svg" xmlns:xlink="http://www.w3.org/1999/xlink" width="1920" zoomAndPan="magnify" viewBox="0 0 1440 809.999993" height="1080" preserveAspectRatio="xMidYMid meet" version="1.0"><defs><g/><clipPath id="e49147d3de"><path d="M 0 48.414062 L 630.976562 48.414062 L 630.976562 113.664062 L 0 113.664062 Z M 0 48.414062 " clip-rule="nonzero"/></clipPath><clipPath id="4a14b0ee86"><path d="M -203.023438 48.414062 L 615.234375 48.414062 C 619.414062 48.414062 623.417969 50.074219 626.371094 53.027344 C 629.328125 55.984375 630.984375 59.988281 630.984375 64.164062 L 630.984375 97.832031 C 630.984375 102.011719 629.328125 106.015625 626.371094 108.96875 C 623.417969 111.925781 619.414062 113.582031 615.234375 113.582031 L -203.023438 113.582031 C -207.199219 113.582031 -211.207031 111.925781 -214.160156 108.96875 C -217.113281 106.015625 -218.773438 102.011719 -218.773438 97.832031 L -218.773438 64.164062 C -218.773438 59.988281 -217.113281 55.984375 -214.160156 53.027344 C -211.207031 50.074219 -207.199219 48.414062 -203.023438 48.414062 Z M -203.023438 48.414062 " clip-rule="nonzero"/></clipPath><clipPath id="ebfa7b6821"><path d="M 38 56.726562 L 40 56.726562 L 40 105.476562 L 38 105.476562 Z M 38 56.726562 " clip-rule="nonzero"/></clipPath><clipPath id="7256aedabe"><path d="M 51 56.726562 L 53 56.726562 L 53 105.476562 L 51 105.476562 Z M 51 56.726562 " clip-rule="nonzero"/></clipPath><clipPath id="374f039341"><path d="M 63 56.726562 L 65 56.726562 L 65 105.476562 L 63 105.476562 Z M 63 56.726562 " clip-rule="nonzero"/></clipPath><clipPath id="41979bbf60"><path d="M 76 56.726562 L 78 56.726562 L 78 105.476562 L 76 105.476562 Z M 76 56.726562 " clip-rule="nonzero"/></clipPath><clipPath id="3d9e7ee152"><path d="M 35 62 L 81.367188 62 L 81.367188 64 L 35 64 Z M 35 62 " clip-rule="nonzero"/></clipPath><clipPath id="a9e224a039"><path d="M 35 71 L 81.367188 71 L 81.367188 73 L 35 73 Z M 35 71 " clip-rule="nonzero"/></clipPath><clipPath id="9eaba2ad1d"><path d="M 35 80 L 81.367188 80 L 81.367188 82 L 35 82 Z M 35 80 " clip-rule="nonzero"/></clipPath><clipPath id="a9a247d2e9"><path d="M 35 89 L 81.367188 89 L 81.367188 91 L 35 91 Z M 35 89 " clip-rule="nonzero"/></clipPath><clipPath id="65406fd7b6"><path d="M 35 99 L 81.367188 99 L 81.367188 101 L 35 101 Z M 35 99 " clip-rule="nonzero"/></clipPath><clipPath id="b883674541"><path d="M 75 63 L 81.367188 63 L 81.367188 68 L 75 68 Z M 75 63 " clip-rule="nonzero"/></clipPath><clipPath id="5c5f09f849"><path d="M 30.367188 60 L 35 60 L 35 65 L 30.367188 65 Z M 30.367188 60 " clip-rule="nonzero"/></clipPath><clipPath id="91e478487e"><path d="M 30.367188 69 L 35 69 L 35 74 L 30.367188 74 Z M 30.367188 69 " clip-rule="nonzero"/></clipPath><clipPath id="10243a0a48"><path d="M 30.367188 79 L 35 79 L 35 83 L 30.367188 83 Z M 30.367188 79 " clip-rule="nonzero"/></clipPath><clipPath id="2cf94972b0"><path d="M 30.367188 88 L 35 88 L 35 93 L 30.367188 93 Z M 30.367188 88 " clip-rule="nonzero"/></clipPath><clipPath id="c04986c1f6"><path d="M 30.367188 97 L 35 97 L 35 102 L 30.367188 102 Z M 30.367188 97 " clip-rule="nonzero"/></clipPath></defs><rect x="-144" width="1728" fill="#ffffff" y="-80.999999" height="971.999992" fill-opacity="1"/><rect x="-144" width="1728" fill="#ffffff" y="-80.999999" height="971.999992" fill-opacity="1"/><g clip-path="url(#e49147d3de)"><g clip-path="url(#4a14b0ee86)"><path stroke-linecap="butt" transform="matrix(0.75, 0, 0, 0.75, -218.772712, 48.415748)" fill="none" stroke-linejoin="miter" d="M 20.999036 -0.00224729 L 1112.009577 -0.00224729 C 1117.582494 -0.00224729 1122.921037 2.211295 1126.858537 6.148795 C 1130.801246 10.091504 1133.009579 15.430046 1133.009579 20.997755 L 1133.009579 65.888385 C 1133.009579 71.461303 1130.801246 76.799845 1126.858537 80.737345 C 1122.921037 84.680054 1117.582494 86.888388 1112.009577 86.888388 L 20.999036 86.888388 C 15.431327 86.888388 10.087576 84.680054 6.150076 80.737345 C 2.212575 76.799845 -0.000966838 71.461303 -0.000966838 65.888385 L -0.000966838 20.997755 C -0.000966838 15.430046 2.212575 10.091504 6.150076 6.148795 C 10.087576 2.211295 15.431327 -0.00224729 20.999036 -0.00224729 Z M 20.999036 -0.00224729 " stroke="#170551" stroke-width="6" stroke-opacity="1" stroke-miterlimit="4"/></g></g><g clip-path="url(#ebfa7b6821)"><path fill="#e6e6e6" d="M 38.96875 56.726562 L 39.921875 56.726562 L 39.921875 105.476562 L 38.96875 105.476562 Z M 38.96875 56.726562 " fill-opacity="1" fill-rule="nonzero"/></g><g clip-path="url(#7256aedabe)"><path fill="#e6e6e6" d="M 51.433594 56.726562 L 52.382812 56.726562 L 52.382812 105.476562 L 51.433594 105.476562 Z M 51.433594 56.726562 " fill-opacity="1" fill-rule="nonzero"/></g><g clip-path="url(#374f039341)"><path fill="#e6e6e6" d="M 63.894531 56.726562 L 64.84375 56.726562 L 64.84375 105.476562 L 63.894531 105.476562 Z M 63.894531 56.726562 " fill-opacity="1" fill-rule="nonzero"/></g><g clip-path="url(#41979bbf60)"><path fill="#e6e6e6" d="M 76.355469 56.726562 L 77.308594 56.726562 L 77.308594 105.476562 L 76.355469 105.476562 Z M 76.355469 56.726562 " fill-opacity="1" fill-rule="nonzero"/></g><g clip-path="url(#3d9e7ee152)"><path fill="#e6e6e6" d="M 35.167969 62.203125 L 81.109375 62.203125 L 81.109375 63.257812 L 35.167969 63.257812 Z M 35.167969 62.203125 " fill-opacity="1" fill-rule="nonzero"/></g><g clip-path="url(#a9e224a039)"><path fill="#e6e6e6" d="M 35.167969 71.46875 L 81.109375 71.46875 L 81.109375 72.523438 L 35.167969 72.523438 Z M 35.167969 71.46875 " fill-opacity="1" fill-rule="nonzero"/></g><g clip-path="url(#9eaba2ad1d)"><path fill="#e6e6e6" d="M 35.167969 80.628906 L 81.109375 80.628906 L 81.109375 81.683594 L 35.167969 81.683594 Z M 35.167969 80.628906 " fill-opacity="1" fill-rule="nonzero"/></g><g clip-path="url(#a9a247d2e9)"><path fill="#e6e6e6" d="M 35.167969 89.894531 L 81.109375 89.894531 L 81.109375 90.949219 L 35.167969 90.949219 Z M 35.167969 89.894531 " fill-opacity="1" fill-rule="nonzero"/></g><g clip-path="url(#65406fd7b6)"><path fill="#e6e6e6" d="M 35.167969 99.160156 L 81.109375 99.160156 L 81.109375 100.214844 L 35.167969 100.214844 Z M 35.167969 99.160156 " fill-opacity="1" fill-rule="nonzero"/></g><path fill="#ed7161" d="M 51.117188 95.898438 L 39.710938 95.898438 C 39.285156 95.898438 38.96875 96.210938 38.96875 96.632812 L 38.96875 99.371094 C 38.96875 99.792969 39.285156 100.109375 39.710938 100.109375 L 51.117188 100.109375 C 51.539062 100.109375 51.855469 99.792969 51.855469 99.371094 L 51.855469 96.632812 C 51.855469 96.210938 51.539062 95.898438 51.117188 95.898438 Z M 51.117188 95.898438 " fill-opacity="1" fill-rule="nonzero"/><path fill="#ffcc66" d="M 64 89.367188 L 50.90625 89.367188 C 50.480469 89.367188 50.164062 89.683594 50.164062 90.105469 L 50.164062 92.84375 C 50.164062 93.265625 50.480469 93.582031 50.90625 93.582031 L 64 93.582031 C 64.421875 93.582031 64.738281 93.265625 64.738281 92.84375 L 64.738281 90.105469 C 64.84375 89.683594 64.421875 89.367188 64 89.367188 Z M 64 89.367188 " fill-opacity="1" fill-rule="nonzero"/><path fill="#9a7baa" d="M 72.027344 82.839844 L 62.945312 82.839844 C 62.523438 82.839844 62.203125 83.15625 62.203125 83.578125 L 62.203125 86.316406 C 62.203125 86.738281 62.523438 87.050781 62.945312 87.050781 L 72.027344 87.050781 C 72.449219 87.050781 72.765625 86.738281 72.765625 86.316406 L 72.765625 83.578125 C 72.765625 83.15625 72.449219 82.839844 72.027344 82.839844 Z M 72.027344 82.839844 " fill-opacity="1" fill-rule="nonzero"/><path fill="#88c057" d="M 76.671875 76.3125 L 69.597656 76.3125 C 69.175781 76.3125 68.859375 76.628906 68.859375 77.050781 L 68.859375 79.789062 C 68.859375 80.207031 69.175781 80.523438 69.597656 80.523438 L 76.671875 80.523438 C 77.097656 80.523438 77.414062 80.207031 77.414062 79.789062 L 77.414062 77.050781 C 77.519531 76.628906 77.203125 76.3125 76.671875 76.3125 Z M 76.671875 76.3125 " fill-opacity="1" fill-rule="nonzero"/><path fill="#3ab7fc" d="M 79.417969 69.785156 L 73.609375 69.785156 C 73.1875 69.785156 72.871094 70.101562 72.871094 70.523438 L 72.871094 73.257812 C 72.871094 73.679688 73.1875 73.996094 73.609375 73.996094 L 79.417969 73.996094 C 79.84375 73.996094 80.160156 73.679688 80.160156 73.257812 L 80.160156 70.523438 C 80.265625 70.101562 79.84375 69.785156 79.417969 69.785156 Z M 79.417969 69.785156 " fill-opacity="1" fill-rule="nonzero"/><g clip-path="url(#b883674541)"><path fill="#ed7161" d="M 80.476562 63.152344 L 76.671875 63.152344 C 76.25 63.152344 75.933594 63.46875 75.933594 63.886719 L 75.933594 66.625 C 75.933594 67.046875 76.25 67.363281 76.671875 67.363281 L 80.476562 67.363281 C 80.898438 67.363281 81.214844 67.046875 81.214844 66.625 L 81.214844 63.992188 C 81.214844 63.574219 80.898438 63.152344 80.476562 63.152344 Z M 80.476562 63.152344 " fill-opacity="1" fill-rule="nonzero"/></g><g clip-path="url(#5c5f09f849)"><path fill="#666666" d="M 34.324219 62.625 C 34.324219 62.875 34.273438 63.117188 34.179688 63.351562 C 34.082031 63.582031 33.945312 63.785156 33.765625 63.964844 C 33.589844 64.140625 33.382812 64.28125 33.148438 64.375 C 32.917969 64.472656 32.675781 64.519531 32.421875 64.519531 C 32.171875 64.519531 31.925781 64.472656 31.695312 64.375 C 31.460938 64.28125 31.257812 64.140625 31.078125 63.964844 C 30.898438 63.785156 30.761719 63.582031 30.664062 63.351562 C 30.570312 63.117188 30.519531 62.875 30.519531 62.625 C 30.519531 62.375 30.570312 62.132812 30.664062 61.898438 C 30.761719 61.667969 30.898438 61.460938 31.078125 61.285156 C 31.257812 61.105469 31.460938 60.96875 31.695312 60.875 C 31.925781 60.777344 32.171875 60.730469 32.421875 60.730469 C 32.675781 60.730469 32.917969 60.777344 33.148438 60.875 C 33.382812 60.96875 33.589844 61.105469 33.765625 61.285156 C 33.945312 61.460938 34.082031 61.667969 34.179688 61.898438 C 34.273438 62.132812 34.324219 62.375 34.324219 62.625 Z M 34.324219 62.625 " fill-opacity="1" fill-rule="nonzero"/></g><g clip-path="url(#91e478487e)"><path fill="#666666" d="M 34.324219 71.890625 C 34.324219 72.140625 34.273438 72.382812 34.179688 72.617188 C 34.082031 72.847656 33.945312 73.054688 33.765625 73.230469 C 33.589844 73.40625 33.382812 73.546875 33.148438 73.640625 C 32.917969 73.738281 32.675781 73.785156 32.421875 73.785156 C 32.171875 73.785156 31.925781 73.738281 31.695312 73.640625 C 31.460938 73.546875 31.257812 73.40625 31.078125 73.230469 C 30.898438 73.054688 30.761719 72.847656 30.664062 72.617188 C 30.570312 72.382812 30.519531 72.140625 30.519531 71.890625 C 30.519531 71.640625 30.570312 71.398438 30.664062 71.164062 C 30.761719 70.933594 30.898438 70.726562 31.078125 70.550781 C 31.257812 70.371094 31.460938 70.234375 31.695312 70.140625 C 31.925781 70.042969 32.171875 69.996094 32.421875 69.996094 C 32.675781 69.996094 32.917969 70.042969 33.148438 70.140625 C 33.382812 70.234375 33.589844 70.371094 33.765625 70.550781 C 33.945312 70.726562 34.082031 70.933594 34.179688 71.164062 C 34.273438 71.398438 34.324219 71.640625 34.324219 71.890625 Z M 34.324219 71.890625 " fill-opacity="1" fill-rule="nonzero"/></g><g clip-path="url(#10243a0a48)"><path fill="#666666" d="M 34.324219 81.050781 C 34.324219 81.300781 34.273438 81.542969 34.179688 81.777344 C 34.082031 82.007812 33.945312 82.214844 33.765625 82.390625 C 33.589844 82.570312 33.382812 82.707031 33.148438 82.800781 C 32.917969 82.898438 32.675781 82.945312 32.421875 82.945312 C 32.171875 82.945312 31.925781 82.898438 31.695312 82.800781 C 31.460938 82.707031 31.257812 82.570312 31.078125 82.390625 C 30.898438 82.214844 30.761719 82.007812 30.664062 81.777344 C 30.570312 81.542969 30.519531 81.300781 30.519531 81.050781 C 30.519531 80.800781 30.570312 80.558594 30.664062 80.324219 C 30.761719 80.09375 30.898438 79.886719 31.078125 79.710938 C 31.257812 79.53125 31.460938 79.394531 31.695312 79.300781 C 31.925781 79.203125 32.171875 79.15625 32.421875 79.15625 C 32.675781 79.15625 32.917969 79.203125 33.148438 79.300781 C 33.382812 79.394531 33.589844 79.53125 33.765625 79.710938 C 33.945312 79.886719 34.082031 80.09375 34.179688 80.324219 C 34.273438 80.558594 34.324219 80.800781 34.324219 81.050781 Z M 34.324219 81.050781 " fill-opacity="1" fill-rule="nonzero"/></g><g clip-path="url(#2cf94972b0)"><path fill="#666666" d="M 34.324219 90.316406 C 34.324219 90.566406 34.273438 90.808594 34.179688 91.042969 C 34.082031 91.273438 33.945312 91.480469 33.765625 91.65625 C 33.589844 91.835938 33.382812 91.972656 33.148438 92.066406 C 32.917969 92.164062 32.675781 92.210938 32.421875 92.210938 C 32.171875 92.210938 31.925781 92.164062 31.695312 92.066406 C 31.460938 91.972656 31.257812 91.835938 31.078125 91.65625 C 30.898438 91.480469 30.761719 91.273438 30.664062 91.042969 C 30.570312 90.808594 30.519531 90.566406 30.519531 90.316406 C 30.519531 90.066406 30.570312 89.824219 30.664062 89.589844 C 30.761719 89.359375 30.898438 89.152344 31.078125 88.976562 C 31.257812 88.796875 31.460938 88.660156 31.695312 88.566406 C 31.925781 88.46875 32.171875 88.421875 32.421875 88.421875 C 32.675781 88.421875 32.917969 88.46875 33.148438 88.566406 C 33.382812 88.660156 33.589844 88.796875 33.765625 88.976562 C 33.945312 89.152344 34.082031 89.359375 34.179688 89.589844 C 34.273438 89.824219 34.324219 90.066406 34.324219 90.316406 Z M 34.324219 90.316406 " fill-opacity="1" fill-rule="nonzero"/></g><g clip-path="url(#c04986c1f6)"><path fill="#666666" d="M 34.324219 99.476562 C 34.324219 99.726562 34.273438 99.96875 34.179688 100.203125 C 34.082031 100.433594 33.945312 100.640625 33.765625 100.816406 C 33.589844 100.996094 33.382812 101.132812 33.148438 101.226562 C 32.917969 101.324219 32.675781 101.371094 32.421875 101.371094 C 32.171875 101.371094 31.925781 101.324219 31.695312 101.226562 C 31.460938 101.132812 31.257812 100.996094 31.078125 100.816406 C 30.898438 100.640625 30.761719 100.433594 30.664062 100.203125 C 30.570312 99.96875 30.519531 99.726562 30.519531 99.476562 C 30.519531 99.226562 30.570312 98.984375 30.664062 98.75 C 30.761719 98.519531 30.898438 98.3125 31.078125 98.136719 C 31.257812 97.957031 31.460938 97.820312 31.695312 97.726562 C 31.925781 97.628906 32.171875 97.582031 32.421875 97.582031 C 32.675781 97.582031 32.917969 97.628906 33.148438 97.726562 C 33.382812 97.820312 33.589844 97.957031 33.765625 98.136719 C 33.945312 98.3125 34.082031 98.519531 34.179688 98.75 C 34.273438 98.984375 34.324219 99.226562 34.324219 99.476562 Z M 34.324219 99.476562 " fill-opacity="1" fill-rule="nonzero"/></g><g fill="#170551" fill-opacity="1"><g transform="translate(107.122698, 91.500015)"><g><path d="M 10.34375 -18.34375 C 11.695312 -18.34375 13.023438 -18.066406 14.328125 -17.515625 C 15.640625 -16.960938 16.753906 -16.21875 17.671875 -15.28125 L 15 -12.109375 C 14.40625 -12.835938 13.695312 -13.410156 12.875 -13.828125 C 12.050781 -14.253906 11.234375 -14.46875 10.421875 -14.46875 C 8.984375 -14.46875 7.78125 -13.960938 6.8125 -12.953125 C 5.84375 -11.941406 5.359375 -10.691406 5.359375 -9.203125 C 5.359375 -7.671875 5.84375 -6.394531 6.8125 -5.375 C 7.78125 -4.351562 8.984375 -3.84375 10.421875 -3.84375 C 11.179688 -3.84375 11.972656 -4.03125 12.796875 -4.40625 C 13.617188 -4.789062 14.351562 -5.3125 15 -5.96875 L 17.6875 -3.125 C 16.707031 -2.113281 15.546875 -1.304688 14.203125 -0.703125 C 12.859375 -0.0976562 11.519531 0.203125 10.1875 0.203125 C 7.445312 0.203125 5.164062 -0.6875 3.34375 -2.46875 C 1.53125 -4.25 0.625 -6.472656 0.625 -9.140625 C 0.625 -11.753906 1.550781 -13.941406 3.40625 -15.703125 C 5.257812 -17.460938 7.570312 -18.34375 10.34375 -18.34375 Z M 10.34375 -18.34375 "/></g></g></g><g fill="#170551" fill-opacity="1"><g transform="translate(129.32794, 91.500015)"><g><path d="M 6.28125 -14 L 6.28125 -11.640625 C 7.269531 -13.316406 8.785156 -14.175781 10.828125 -14.21875 L 10.828125 -10.15625 C 9.546875 -10.28125 8.5 -10.066406 7.6875 -9.515625 C 6.875 -8.972656 6.40625 -8.203125 6.28125 -7.203125 L 6.28125 0 L 1.796875 0 L 1.796875 -14 Z M 6.28125 -14 "/></g></g></g><g fill="#170551" fill-opacity="1"><g transform="translate(144.651449, 91.500015)"><g><path d="M 8.28125 -14.15625 C 10.570312 -14.15625 12.414062 -13.5 13.8125 -12.1875 C 15.21875 -10.882812 15.921875 -9.160156 15.921875 -7.015625 C 15.921875 -4.867188 15.21875 -3.132812 13.8125 -1.8125 C 12.414062 -0.5 10.570312 0.15625 8.28125 0.15625 C 5.976562 0.15625 4.125 -0.5 2.71875 -1.8125 C 1.320312 -3.132812 0.625 -4.867188 0.625 -7.015625 C 0.625 -9.160156 1.320312 -10.882812 2.71875 -12.1875 C 4.125 -13.5 5.976562 -14.15625 8.28125 -14.15625 Z M 8.28125 -10.609375 C 7.351562 -10.609375 6.597656 -10.269531 6.015625 -9.59375 C 5.429688 -8.914062 5.140625 -8.039062 5.140625 -6.96875 C 5.140625 -5.875 5.429688 -4.992188 6.015625 -4.328125 C 6.597656 -3.660156 7.351562 -3.328125 8.28125 -3.328125 C 9.207031 -3.328125 9.957031 -3.660156 10.53125 -4.328125 C 11.113281 -4.992188 11.40625 -5.875 11.40625 -6.96875 C 11.40625 -8.039062 11.113281 -8.914062 10.53125 -9.59375 C 9.957031 -10.269531 9.207031 -10.609375 8.28125 -10.609375 Z M 8.28125 -10.609375 "/></g></g></g><g fill="#170551" fill-opacity="1"><g transform="translate(165.428397, 91.500015)"><g><path d="M 10.96875 -14.21875 C 12.507812 -14.21875 13.742188 -13.726562 14.671875 -12.75 C 15.609375 -11.769531 16.078125 -10.460938 16.078125 -8.828125 L 16.078125 0 L 11.609375 0 L 11.609375 -7.59375 C 11.609375 -8.40625 11.390625 -9.046875 10.953125 -9.515625 C 10.515625 -9.992188 9.910156 -10.234375 9.140625 -10.234375 C 8.347656 -10.234375 7.695312 -9.972656 7.1875 -9.453125 C 6.675781 -8.929688 6.375 -8.25 6.28125 -7.40625 L 6.28125 0 L 1.796875 0 L 1.796875 -14 L 6.28125 -14 L 6.28125 -11.71875 C 7.269531 -13.34375 8.832031 -14.175781 10.96875 -14.21875 Z M 10.96875 -14.21875 "/></g></g></g><g fill="#170551" fill-opacity="1"><g transform="translate(187.14023, 91.500015)"><g><path d="M 8.28125 -14.15625 C 10.570312 -14.15625 12.414062 -13.5 13.8125 -12.1875 C 15.21875 -10.882812 15.921875 -9.160156 15.921875 -7.015625 C 15.921875 -4.867188 15.21875 -3.132812 13.8125 -1.8125 C 12.414062 -0.5 10.570312 0.15625 8.28125 0.15625 C 5.976562 0.15625 4.125 -0.5 2.71875 -1.8125 C 1.320312 -3.132812 0.625 -4.867188 0.625 -7.015625 C 0.625 -9.160156 1.320312 -10.882812 2.71875 -12.1875 C 4.125 -13.5 5.976562 -14.15625 8.28125 -14.15625 Z M 8.28125 -10.609375 C 7.351562 -10.609375 6.597656 -10.269531 6.015625 -9.59375 C 5.429688 -8.914062 5.140625 -8.039062 5.140625 -6.96875 C 5.140625 -5.875 5.429688 -4.992188 6.015625 -4.328125 C 6.597656 -3.660156 7.351562 -3.328125 8.28125 -3.328125 C 9.207031 -3.328125 9.957031 -3.660156 10.53125 -4.328125 C 11.113281 -4.992188 11.40625 -5.875 11.40625 -6.96875 C 11.40625 -8.039062 11.113281 -8.914062 10.53125 -9.59375 C 9.957031 -10.269531 9.207031 -10.609375 8.28125 -10.609375 Z M 8.28125 -10.609375 "/></g></g></g><g fill="#170551" fill-opacity="1"><g transform="translate(207.917184, 91.500015)"><g><path d="M 15.171875 -14 L 15.171875 -1.265625 C 15.171875 0.703125 14.472656 2.273438 13.078125 3.453125 C 11.679688 4.628906 9.851562 5.21875 7.59375 5.21875 C 5.269531 5.21875 3.1875 4.601562 1.34375 3.375 L 2.90625 0.34375 C 4.257812 1.269531 5.707031 1.734375 7.25 1.734375 C 8.320312 1.734375 9.164062 1.472656 9.78125 0.953125 C 10.394531 0.441406 10.703125 -0.253906 10.703125 -1.140625 L 10.703125 -2.625 C 9.753906 -1.375 8.410156 -0.75 6.671875 -0.75 C 4.890625 -0.75 3.441406 -1.375 2.328125 -2.625 C 1.210938 -3.875 0.65625 -5.507812 0.65625 -7.53125 C 0.65625 -9.507812 1.195312 -11.109375 2.28125 -12.328125 C 3.375 -13.546875 4.804688 -14.15625 6.578125 -14.15625 C 8.359375 -14.175781 9.734375 -13.554688 10.703125 -12.296875 L 10.703125 -14 Z M 7.796875 -4 C 8.660156 -4 9.359375 -4.3125 9.890625 -4.9375 C 10.429688 -5.570312 10.703125 -6.394531 10.703125 -7.40625 C 10.703125 -8.425781 10.429688 -9.25 9.890625 -9.875 C 9.359375 -10.507812 8.660156 -10.828125 7.796875 -10.828125 C 6.910156 -10.828125 6.191406 -10.507812 5.640625 -9.875 C 5.097656 -9.25 4.828125 -8.425781 4.828125 -7.40625 C 4.828125 -6.394531 5.097656 -5.570312 5.640625 -4.9375 C 6.191406 -4.3125 6.910156 -4 7.796875 -4 Z M 7.796875 -4 "/></g></g></g><g fill="#170551" fill-opacity="1"><g transform="translate(228.953827, 91.500015)"><g><path d="M 6.28125 -14 L 6.28125 -11.640625 C 7.269531 -13.316406 8.785156 -14.175781 10.828125 -14.21875 L 10.828125 -10.15625 C 9.546875 -10.28125 8.5 -10.066406 7.6875 -9.515625 C 6.875 -8.972656 6.40625 -8.203125 6.28125 -7.203125 L 6.28125 0 L 1.796875 0 L 1.796875 -14 Z M 6.28125 -14 "/></g></g></g><g fill="#170551" fill-opacity="1"><g transform="translate(244.277339, 91.500015)"><g><path d="M 8.078125 -14.21875 C 10.003906 -14.21875 11.5 -13.769531 12.5625 -12.875 C 13.625 -11.976562 14.164062 -10.734375 14.1875 -9.140625 L 14.1875 0 L 9.796875 0 L 9.796875 -1.609375 C 8.878906 -0.398438 7.453125 0.203125 5.515625 0.203125 C 4.035156 0.203125 2.863281 -0.203125 2 -1.015625 C 1.132812 -1.828125 0.703125 -2.882812 0.703125 -4.1875 C 0.703125 -5.519531 1.164062 -6.550781 2.09375 -7.28125 C 3.019531 -8.019531 4.347656 -8.398438 6.078125 -8.421875 L 9.765625 -8.421875 L 9.765625 -8.625 C 9.765625 -9.320312 9.535156 -9.863281 9.078125 -10.25 C 8.617188 -10.632812 7.941406 -10.828125 7.046875 -10.828125 C 5.773438 -10.828125 4.378906 -10.441406 2.859375 -9.671875 L 1.578125 -12.625 C 3.847656 -13.6875 6.015625 -14.21875 8.078125 -14.21875 Z M 6.890625 -2.828125 C 7.597656 -2.828125 8.21875 -3.003906 8.75 -3.359375 C 9.289062 -3.710938 9.628906 -4.175781 9.765625 -4.75 L 9.765625 -6 L 6.9375 -6 C 5.582031 -6 4.90625 -5.5 4.90625 -4.5 C 4.90625 -3.976562 5.078125 -3.566406 5.421875 -3.265625 C 5.773438 -2.972656 6.265625 -2.828125 6.890625 -2.828125 Z M 6.890625 -2.828125 "/></g></g></g><g fill="#170551" fill-opacity="1"><g transform="translate(264.093459, 91.500015)"><g><path d="M 20.5 -14.21875 C 22.039062 -14.21875 23.265625 -13.726562 24.171875 -12.75 C 25.085938 -11.769531 25.546875 -10.460938 25.546875 -8.828125 L 25.546875 0 L 21.078125 0 L 21.078125 -7.59375 C 21.078125 -8.414062 20.859375 -9.066406 20.421875 -9.546875 C 19.992188 -10.023438 19.40625 -10.265625 18.65625 -10.265625 C 17.820312 -10.242188 17.15625 -9.925781 16.65625 -9.3125 C 16.164062 -8.695312 15.921875 -7.90625 15.921875 -6.9375 L 15.921875 0 L 11.4375 0 L 11.4375 -7.59375 C 11.4375 -8.414062 11.222656 -9.066406 10.796875 -9.546875 C 10.367188 -10.023438 9.785156 -10.265625 9.046875 -10.265625 C 8.191406 -10.242188 7.515625 -9.921875 7.015625 -9.296875 C 6.515625 -8.671875 6.265625 -7.882812 6.265625 -6.9375 L 6.265625 0 L 1.796875 0 L 1.796875 -14 L 6.265625 -14 L 6.265625 -11.6875 C 7.210938 -13.332031 8.753906 -14.175781 10.890625 -14.21875 C 12.015625 -14.21875 12.988281 -13.9375 13.8125 -13.375 C 14.632812 -12.8125 15.21875 -12.035156 15.5625 -11.046875 C 16.476562 -13.117188 18.125 -14.175781 20.5 -14.21875 Z M 20.5 -14.21875 "/></g></g></g><g fill="#170551" fill-opacity="1"><g transform="translate(295.257928, 91.500015)"><g><path d="M 8.078125 -14.21875 C 10.003906 -14.21875 11.5 -13.769531 12.5625 -12.875 C 13.625 -11.976562 14.164062 -10.734375 14.1875 -9.140625 L 14.1875 0 L 9.796875 0 L 9.796875 -1.609375 C 8.878906 -0.398438 7.453125 0.203125 5.515625 0.203125 C 4.035156 0.203125 2.863281 -0.203125 2 -1.015625 C 1.132812 -1.828125 0.703125 -2.882812 0.703125 -4.1875 C 0.703125 -5.519531 1.164062 -6.550781 2.09375 -7.28125 C 3.019531 -8.019531 4.347656 -8.398438 6.078125 -8.421875 L 9.765625 -8.421875 L 9.765625 -8.625 C 9.765625 -9.320312 9.535156 -9.863281 9.078125 -10.25 C 8.617188 -10.632812 7.941406 -10.828125 7.046875 -10.828125 C 5.773438 -10.828125 4.378906 -10.441406 2.859375 -9.671875 L 1.578125 -12.625 C 3.847656 -13.6875 6.015625 -14.21875 8.078125 -14.21875 Z M 6.890625 -2.828125 C 7.597656 -2.828125 8.21875 -3.003906 8.75 -3.359375 C 9.289062 -3.710938 9.628906 -4.175781 9.765625 -4.75 L 9.765625 -6 L 6.9375 -6 C 5.582031 -6 4.90625 -5.5 4.90625 -4.5 C 4.90625 -3.976562 5.078125 -3.566406 5.421875 -3.265625 C 5.773438 -2.972656 6.265625 -2.828125 6.890625 -2.828125 Z M 6.890625 -2.828125 "/></g></g></g><g fill="#170551" fill-opacity="1"><g transform="translate(315.074036, 91.500015)"><g/></g></g><g fill="#170551" fill-opacity="1"><g transform="translate(325.333641, 91.500015)"><g><path d="M 15.90625 -19.28125 L 15.90625 0 L 11.40625 0 L 11.40625 -1.84375 C 10.382812 -0.488281 8.984375 0.1875 7.203125 0.1875 C 5.222656 0.1875 3.632812 -0.476562 2.4375 -1.8125 C 1.25 -3.144531 0.65625 -4.894531 0.65625 -7.0625 C 0.65625 -9.21875 1.242188 -10.941406 2.421875 -12.234375 C 3.597656 -13.535156 5.15625 -14.1875 7.09375 -14.1875 C 8.945312 -14.1875 10.382812 -13.507812 11.40625 -12.15625 L 11.40625 -19.28125 Z M 6.03125 -4.3125 C 6.601562 -3.632812 7.351562 -3.296875 8.28125 -3.296875 C 9.21875 -3.296875 9.972656 -3.632812 10.546875 -4.3125 C 11.117188 -4.988281 11.40625 -5.875 11.40625 -6.96875 C 11.40625 -8.039062 11.117188 -8.914062 10.546875 -9.59375 C 9.972656 -10.269531 9.21875 -10.609375 8.28125 -10.609375 C 7.351562 -10.609375 6.601562 -10.269531 6.03125 -9.59375 C 5.457031 -8.925781 5.160156 -8.050781 5.140625 -6.96875 C 5.160156 -5.875 5.457031 -4.988281 6.03125 -4.3125 Z M 6.03125 -4.3125 "/></g></g></g><g fill="#170551" fill-opacity="1"><g transform="translate(347.383063, 91.500015)"><g><path d="M 7.921875 -14.15625 C 10.347656 -14.15625 12.171875 -13.410156 13.390625 -11.921875 C 14.617188 -10.429688 15.15625 -8.390625 15 -5.796875 L 5.140625 -5.796875 C 5.367188 -4.960938 5.769531 -4.320312 6.34375 -3.875 C 6.914062 -3.425781 7.613281 -3.203125 8.4375 -3.203125 C 9.726562 -3.203125 10.847656 -3.675781 11.796875 -4.625 L 14.15625 -2.3125 C 12.65625 -0.664062 10.625 0.15625 8.0625 0.15625 C 5.789062 0.15625 3.984375 -0.488281 2.640625 -1.78125 C 1.296875 -3.082031 0.625 -4.8125 0.625 -6.96875 C 0.625 -9.132812 1.296875 -10.875 2.640625 -12.1875 C 3.984375 -13.5 5.742188 -14.15625 7.921875 -14.15625 Z M 5.0625 -8.21875 L 10.671875 -8.21875 C 10.671875 -9.0625 10.425781 -9.742188 9.9375 -10.265625 C 9.445312 -10.785156 8.796875 -11.046875 7.984375 -11.046875 C 7.210938 -11.046875 6.566406 -10.789062 6.046875 -10.28125 C 5.535156 -9.769531 5.207031 -9.082031 5.0625 -8.21875 Z M 5.0625 -8.21875 "/></g></g></g><g fill="#170551" fill-opacity="1"><g transform="translate(367.251104, 91.500015)"><g/></g></g><g fill="#170551" fill-opacity="1"><g transform="translate(377.510709, 91.500015)"><g><path d="M 15.71875 -14.46875 L 10.234375 -14.46875 L 10.234375 0 L 5.609375 0 L 5.609375 -14.46875 L 0.1875 -14.46875 L 0.1875 -18.21875 L 15.71875 -18.21875 Z M 15.71875 -14.46875 "/></g></g></g><g fill="#170551" fill-opacity="1"><g transform="translate(397.612484, 91.500015)"><g><path d="M 6.28125 -14 L 6.28125 -11.640625 C 7.269531 -13.316406 8.785156 -14.175781 10.828125 -14.21875 L 10.828125 -10.15625 C 9.546875 -10.28125 8.5 -10.066406 7.6875 -9.515625 C 6.875 -8.972656 6.40625 -8.203125 6.28125 -7.203125 L 6.28125 0 L 1.796875 0 L 1.796875 -14 Z M 6.28125 -14 "/></g></g></g><g fill="#170551" fill-opacity="1"><g transform="translate(412.935985, 91.500015)"><g><path d="M 7.921875 -14.15625 C 10.347656 -14.15625 12.171875 -13.410156 13.390625 -11.921875 C 14.617188 -10.429688 15.15625 -8.390625 15 -5.796875 L 5.140625 -5.796875 C 5.367188 -4.960938 5.769531 -4.320312 6.34375 -3.875 C 6.914062 -3.425781 7.613281 -3.203125 8.4375 -3.203125 C 9.726562 -3.203125 10.847656 -3.675781 11.796875 -4.625 L 14.15625 -2.3125 C 12.65625 -0.664062 10.625 0.15625 8.0625 0.15625 C 5.789062 0.15625 3.984375 -0.488281 2.640625 -1.78125 C 1.296875 -3.082031 0.625 -4.8125 0.625 -6.96875 C 0.625 -9.132812 1.296875 -10.875 2.640625 -12.1875 C 3.984375 -13.5 5.742188 -14.15625 7.921875 -14.15625 Z M 5.0625 -8.21875 L 10.671875 -8.21875 C 10.671875 -9.0625 10.425781 -9.742188 9.9375 -10.265625 C 9.445312 -10.785156 8.796875 -11.046875 7.984375 -11.046875 C 7.210938 -11.046875 6.566406 -10.789062 6.046875 -10.28125 C 5.535156 -9.769531 5.207031 -9.082031 5.0625 -8.21875 Z M 5.0625 -8.21875 "/></g></g></g><g fill="#170551" fill-opacity="1"><g transform="translate(432.804026, 91.500015)"><g><path d="M 2.34375 -19.734375 C 2.789062 -20.171875 3.359375 -20.390625 4.046875 -20.390625 C 4.742188 -20.390625 5.3125 -20.171875 5.75 -19.734375 C 6.195312 -19.296875 6.421875 -18.726562 6.421875 -18.03125 C 6.421875 -17.34375 6.195312 -16.769531 5.75 -16.3125 C 5.3125 -15.863281 4.742188 -15.640625 4.046875 -15.640625 C 3.359375 -15.640625 2.789062 -15.863281 2.34375 -16.3125 C 1.90625 -16.769531 1.6875 -17.34375 1.6875 -18.03125 C 1.6875 -18.726562 1.90625 -19.296875 2.34375 -19.734375 Z M 6.265625 0 L 1.796875 0 L 1.796875 -14 L 6.265625 -14 Z M 6.265625 0 "/></g></g></g><g fill="#170551" fill-opacity="1"><g transform="translate(445.115144, 91.500015)"><g><path d="M 10.96875 -14.21875 C 12.507812 -14.21875 13.742188 -13.726562 14.671875 -12.75 C 15.609375 -11.769531 16.078125 -10.460938 16.078125 -8.828125 L 16.078125 0 L 11.609375 0 L 11.609375 -7.59375 C 11.609375 -8.40625 11.390625 -9.046875 10.953125 -9.515625 C 10.515625 -9.992188 9.910156 -10.234375 9.140625 -10.234375 C 8.347656 -10.234375 7.695312 -9.972656 7.1875 -9.453125 C 6.675781 -8.929688 6.375 -8.25 6.28125 -7.40625 L 6.28125 0 L 1.796875 0 L 1.796875 -14 L 6.28125 -14 L 6.28125 -11.71875 C 7.269531 -13.34375 8.832031 -14.175781 10.96875 -14.21875 Z M 10.96875 -14.21875 "/></g></g></g><g fill="#170551" fill-opacity="1"><g transform="translate(466.826966, 91.500015)"><g><path d="M 8.078125 -14.21875 C 10.003906 -14.21875 11.5 -13.769531 12.5625 -12.875 C 13.625 -11.976562 14.164062 -10.734375 14.1875 -9.140625 L 14.1875 0 L 9.796875 0 L 9.796875 -1.609375 C 8.878906 -0.398438 7.453125 0.203125 5.515625 0.203125 C 4.035156 0.203125 2.863281 -0.203125 2 -1.015625 C 1.132812 -1.828125 0.703125 -2.882812 0.703125 -4.1875 C 0.703125 -5.519531 1.164062 -6.550781 2.09375 -7.28125 C 3.019531 -8.019531 4.347656 -8.398438 6.078125 -8.421875 L 9.765625 -8.421875 L 9.765625 -8.625 C 9.765625 -9.320312 9.535156 -9.863281 9.078125 -10.25 C 8.617188 -10.632812 7.941406 -10.828125 7.046875 -10.828125 C 5.773438 -10.828125 4.378906 -10.441406 2.859375 -9.671875 L 1.578125 -12.625 C 3.847656 -13.6875 6.015625 -14.21875 8.078125 -14.21875 Z M 6.890625 -2.828125 C 7.597656 -2.828125 8.21875 -3.003906 8.75 -3.359375 C 9.289062 -3.710938 9.628906 -4.175781 9.765625 -4.75 L 9.765625 -6 L 6.9375 -6 C 5.582031 -6 4.90625 -5.5 4.90625 -4.5 C 4.90625 -3.976562 5.078125 -3.566406 5.421875 -3.265625 C 5.773438 -2.972656 6.265625 -2.828125 6.890625 -2.828125 Z M 6.890625 -2.828125 "/></g></g></g><g fill="#170551" fill-opacity="1"><g transform="translate(486.643073, 91.500015)"><g><path d="M 20.5 -14.21875 C 22.039062 -14.21875 23.265625 -13.726562 24.171875 -12.75 C 25.085938 -11.769531 25.546875 -10.460938 25.546875 -8.828125 L 25.546875 0 L 21.078125 0 L 21.078125 -7.59375 C 21.078125 -8.414062 20.859375 -9.066406 20.421875 -9.546875 C 19.992188 -10.023438 19.40625 -10.265625 18.65625 -10.265625 C 17.820312 -10.242188 17.15625 -9.925781 16.65625 -9.3125 C 16.164062 -8.695312 15.921875 -7.90625 15.921875 -6.9375 L 15.921875 0 L 11.4375 0 L 11.4375 -7.59375 C 11.4375 -8.414062 11.222656 -9.066406 10.796875 -9.546875 C 10.367188 -10.023438 9.785156 -10.265625 9.046875 -10.265625 C 8.191406 -10.242188 7.515625 -9.921875 7.015625 -9.296875 C 6.515625 -8.671875 6.265625 -7.882812 6.265625 -6.9375 L 6.265625 0 L 1.796875 0 L 1.796875 -14 L 6.265625 -14 L 6.265625 -11.6875 C 7.210938 -13.332031 8.753906 -14.175781 10.890625 -14.21875 C 12.015625 -14.21875 12.988281 -13.9375 13.8125 -13.375 C 14.632812 -12.8125 15.21875 -12.035156 15.5625 -11.046875 C 16.476562 -13.117188 18.125 -14.175781 20.5 -14.21875 Z M 20.5 -14.21875 "/></g></g></g><g fill="#170551" fill-opacity="1"><g transform="translate(517.807554, 91.500015)"><g><path d="M 7.921875 -14.15625 C 10.347656 -14.15625 12.171875 -13.410156 13.390625 -11.921875 C 14.617188 -10.429688 15.15625 -8.390625 15 -5.796875 L 5.140625 -5.796875 C 5.367188 -4.960938 5.769531 -4.320312 6.34375 -3.875 C 6.914062 -3.425781 7.613281 -3.203125 8.4375 -3.203125 C 9.726562 -3.203125 10.847656 -3.675781 11.796875 -4.625 L 14.15625 -2.3125 C 12.65625 -0.664062 10.625 0.15625 8.0625 0.15625 C 5.789062 0.15625 3.984375 -0.488281 2.640625 -1.78125 C 1.296875 -3.082031 0.625 -4.8125 0.625 -6.96875 C 0.625 -9.132812 1.296875 -10.875 2.640625 -12.1875 C 3.984375 -13.5 5.742188 -14.15625 7.921875 -14.15625 Z M 5.0625 -8.21875 L 10.671875 -8.21875 C 10.671875 -9.0625 10.425781 -9.742188 9.9375 -10.265625 C 9.445312 -10.785156 8.796875 -11.046875 7.984375 -11.046875 C 7.210938 -11.046875 6.566406 -10.789062 6.046875 -10.28125 C 5.535156 -9.769531 5.207031 -9.082031 5.0625 -8.21875 Z M 5.0625 -8.21875 "/></g></g></g><g fill="#170551" fill-opacity="1"><g transform="translate(537.675595, 91.500015)"><g><path d="M 10.96875 -14.21875 C 12.507812 -14.21875 13.742188 -13.726562 14.671875 -12.75 C 15.609375 -11.769531 16.078125 -10.460938 16.078125 -8.828125 L 16.078125 0 L 11.609375 0 L 11.609375 -7.59375 C 11.609375 -8.40625 11.390625 -9.046875 10.953125 -9.515625 C 10.515625 -9.992188 9.910156 -10.234375 9.140625 -10.234375 C 8.347656 -10.234375 7.695312 -9.972656 7.1875 -9.453125 C 6.675781 -8.929688 6.375 -8.25 6.28125 -7.40625 L 6.28125 0 L 1.796875 0 L 1.796875 -14 L 6.28125 -14 L 6.28125 -11.71875 C 7.269531 -13.34375 8.832031 -14.175781 10.96875 -14.21875 Z M 10.96875 -14.21875 "/></g></g></g><g fill="#170551" fill-opacity="1"><g transform="translate(559.387417, 91.500015)"><g><path d="M 9.953125 -3.875 L 10.828125 -0.75 C 9.742188 -0.113281 8.5 0.203125 7.09375 0.203125 C 5.707031 0.203125 4.582031 -0.179688 3.71875 -0.953125 C 2.863281 -1.722656 2.4375 -2.816406 2.4375 -4.234375 L 2.4375 -10.421875 L 0.5 -10.421875 L 0.5 -13.359375 L 2.4375 -13.359375 L 2.4375 -17.25 L 6.90625 -17.25 L 6.90625 -13.375 L 10.578125 -13.375 L 10.578125 -10.421875 L 6.90625 -10.421875 L 6.90625 -4.9375 C 6.90625 -4.394531 7.015625 -4 7.234375 -3.75 C 7.453125 -3.5 7.78125 -3.382812 8.21875 -3.40625 C 8.625 -3.40625 9.203125 -3.5625 9.953125 -3.875 Z M 9.953125 -3.875 "/></g></g></g><g fill="#170551" fill-opacity="1"><g transform="translate(574.918697, 91.500015)"><g><path d="M 8.28125 -14.15625 C 10.570312 -14.15625 12.414062 -13.5 13.8125 -12.1875 C 15.21875 -10.882812 15.921875 -9.160156 15.921875 -7.015625 C 15.921875 -4.867188 15.21875 -3.132812 13.8125 -1.8125 C 12.414062 -0.5 10.570312 0.15625 8.28125 0.15625 C 5.976562 0.15625 4.125 -0.5 2.71875 -1.8125 C 1.320312 -3.132812 0.625 -4.867188 0.625 -7.015625 C 0.625 -9.160156 1.320312 -10.882812 2.71875 -12.1875 C 4.125 -13.5 5.976562 -14.15625 8.28125 -14.15625 Z M 8.28125 -10.609375 C 7.351562 -10.609375 6.597656 -10.269531 6.015625 -9.59375 C 5.429688 -8.914062 5.140625 -8.039062 5.140625 -6.96875 C 5.140625 -5.875 5.429688 -4.992188 6.015625 -4.328125 C 6.597656 -3.660156 7.351562 -3.328125 8.28125 -3.328125 C 9.207031 -3.328125 9.957031 -3.660156 10.53125 -4.328125 C 11.113281 -4.992188 11.40625 -5.875 11.40625 -6.96875 C 11.40625 -8.039062 11.113281 -8.914062 10.53125 -9.59375 C 9.957031 -10.269531 9.207031 -10.609375 8.28125 -10.609375 Z M 8.28125 -10.609375 "/></g></g></g></svg>