<svg xmlns="http://www.w3.org/2000/svg" xmlns:xlink="http://www.w3.org/1999/xlink" width="1920" zoomAndPan="magnify" viewBox="0 0 1440 809.999993" height="1080" preserveAspectRatio="xMidYMid meet" version="1.0"><defs><g/><clipPath id="bfad159bec"><path d="M 0 34.914062 L 567 34.914062 L 567 100.164062 L 0 100.164062 Z M 0 34.914062 " clip-rule="nonzero"/></clipPath><clipPath id="c1b4c8cd45"><path d="M -203.023438 34.914062 L 551.109375 34.914062 C 555.289062 34.914062 559.292969 36.574219 562.246094 39.527344 C 565.203125 42.484375 566.859375 46.488281 566.859375 50.664062 L 566.859375 84.332031 C 566.859375 88.511719 565.203125 92.515625 562.246094 95.46875 C 559.292969 98.425781 555.289062 100.082031 551.109375 100.082031 L -203.023438 100.082031 C -207.199219 100.082031 -211.207031 98.425781 -214.160156 95.46875 C -217.113281 92.515625 -218.773438 88.511719 -218.773438 84.332031 L -218.773438 50.664062 C -218.773438 46.488281 -217.113281 42.484375 -214.160156 39.527344 C -211.207031 36.574219 -207.199219 34.914062 -203.023438 34.914062 Z M -203.023438 34.914062 " clip-rule="nonzero"/></clipPath><clipPath id="7f1a6e1383"><path d="M 33.578125 55 L 48 55 L 48 87 L 33.578125 87 Z M 33.578125 55 " clip-rule="nonzero"/></clipPath><clipPath id="041ceca949"><path d="M 38 43.398438 L 80 43.398438 L 80 62 L 38 62 Z M 38 43.398438 " clip-rule="nonzero"/></clipPath><clipPath id="af93967b92"><path d="M 46 63 L 80.828125 63 L 80.828125 91.398438 L 46 91.398438 Z M 46 63 " clip-rule="nonzero"/></clipPath></defs><rect x="-144" width="1728" fill="#ffffff" y="-80.999999" height="971.999992" fill-opacity="1"/><rect x="-144" width="1728" fill="#ffffff" y="-80.999999" height="971.999992" fill-opacity="1"/><g clip-path="url(#bfad159bec)"><g clip-path="url(#c1b4c8cd45)"><path stroke-linecap="butt" transform="matrix(0.75, 0, 0, 0.75, -218.772655, 34.915752)" fill="none" stroke-linejoin="miter" d="M 20.998959 -0.00225267 L 1026.50949 -0.00225267 C 1032.082408 -0.00225267 1037.42095 2.211289 1041.35845 6.14879 C 1045.301159 10.091498 1047.509493 15.430041 1047.509493 20.99775 L 1047.509493 65.88838 C 1047.509493 71.461297 1045.301159 76.799839 1041.35845 80.73734 C 1037.42095 84.680049 1032.082408 86.888382 1026.50949 86.888382 L 20.998959 86.888382 C 15.43125 86.888382 10.087499 84.680049 6.149999 80.73734 C 2.212498 76.799839 -0.00104364 71.461297 -0.00104364 65.88838 L -0.00104364 20.99775 C -0.00104364 15.430041 2.212498 10.091498 6.149999 6.14879 C 10.087499 2.211289 15.43125 -0.00225267 20.998959 -0.00225267 Z M 20.998959 -0.00225267 " stroke="#170551" stroke-width="6" stroke-opacity="1" stroke-miterlimit="4"/></g></g><g clip-path="url(#7f1a6e1383)"><path fill="#2b394b" d="M 47.59375 81.429688 L 43.898438 86.890625 C 37.664062 82.621094 33.578125 75.445312 33.578125 67.320312 C 33.578125 62.863281 34.804688 58.691406 36.941406 55.132812 L 42.367188 58.960938 C 40.96875 61.429688 40.175781 64.28125 40.175781 67.320312 C 40.175781 73.167969 43.109375 78.34375 47.59375 81.429688 " fill-opacity="1" fill-rule="nonzero"/></g><g clip-path="url(#041ceca949)"><path fill="#38b6ff" d="M 47.898438 53.015625 C 46.589844 53.867188 45.414062 54.902344 44.394531 56.070312 L 38.972656 52.253906 C 43.328125 46.96875 49.910156 43.609375 57.28125 43.609375 C 67.699219 43.609375 76.550781 50.328125 79.730469 59.671875 L 73.28125 61.257812 C 70.84375 54.796875 64.601562 50.210938 57.28125 50.210938 C 55.109375 50.210938 53.03125 50.617188 51.113281 51.363281 C 49.976562 51.796875 48.898438 52.351562 47.898438 53.015625 " fill-opacity="1" fill-rule="nonzero"/></g><g clip-path="url(#af93967b92)"><path fill="#2b394b" d="M 80.992188 67.320312 C 80.992188 65.855469 80.855469 64.414062 80.601562 63.015625 L 74.167969 64.597656 C 74.324219 65.476562 74.394531 66.390625 74.394531 67.320312 C 74.394531 73.191406 71.4375 78.382812 66.921875 81.460938 L 66.9375 81.480469 C 65.988281 82.132812 64.964844 82.691406 63.875 83.144531 L 63.859375 83.121094 C 61.835938 83.972656 59.617188 84.433594 57.28125 84.433594 C 54.945312 84.433594 52.726562 83.972656 50.707031 83.121094 L 46.953125 88.671875 C 48.550781 89.445312 50.253906 90.046875 52.03125 90.453125 L 52.019531 90.480469 C 55.398438 91.257812 59.011719 91.296875 62.613281 90.464844 C 66.304688 89.609375 69.597656 87.9375 72.332031 85.675781 L 72.3125 85.660156 C 77.613281 81.3125 80.992188 74.714844 80.992188 67.320312 " fill-opacity="1" fill-rule="nonzero"/></g><path fill="#38b6ff" d="M 52.070312 76.152344 C 53.316406 76.152344 54.515625 76.152344 55.746094 76.152344 C 55.746094 69.417969 55.746094 62.746094 55.746094 56.058594 C 54.5 56.058594 53.285156 56.058594 52.070312 56.058594 C 52.070312 62.777344 52.070312 69.460938 52.070312 76.152344 " fill-opacity="1" fill-rule="nonzero"/><path fill="#38b6ff" d="M 58.582031 76.152344 C 59.824219 76.152344 61.027344 76.152344 62.261719 76.152344 C 62.261719 72.777344 62.261719 69.445312 62.261719 66.105469 C 61.015625 66.105469 59.800781 66.105469 58.582031 66.105469 C 58.582031 69.464844 58.582031 72.808594 58.582031 76.152344 " fill-opacity="1" fill-rule="nonzero"/><path fill="#38b6ff" d="M 45.558594 76.152344 C 46.800781 76.152344 48.003906 76.152344 49.238281 76.152344 C 49.238281 71.660156 49.238281 67.25 49.238281 62.816406 C 47.992188 62.816406 46.773438 62.816406 45.558594 62.816406 C 45.558594 67.289062 45.558594 71.714844 45.558594 76.152344 " fill-opacity="1" fill-rule="nonzero"/><path fill="#38b6ff" d="M 65.078125 76.148438 C 66.308594 76.148438 67.507812 76.148438 68.773438 76.148438 C 68.773438 70.601562 68.773438 65.101562 68.773438 59.558594 C 67.53125 59.558594 66.320312 59.558594 65.078125 59.558594 C 65.078125 65.101562 65.078125 70.605469 65.078125 76.148438 " fill-opacity="1" fill-rule="nonzero"/><g fill="#170551" fill-opacity="1"><g transform="translate(108.472426, 78.000016)"><g><path d="M 13.90625 -3.359375 L 5.953125 -3.359375 L 4.625 0 L -0.125 0 L 7.71875 -18.1875 L 12.46875 -18.1875 L 20.140625 0 L 15.203125 0 Z M 12.546875 -6.859375 L 9.953125 -13.59375 L 7.296875 -6.859375 Z M 12.546875 -6.859375 "/></g></g></g><g fill="#170551" fill-opacity="1"><g transform="translate(132.703226, 78.000016)"><g><path d="M 10.96875 -14.21875 C 12.507812 -14.21875 13.742188 -13.726562 14.671875 -12.75 C 15.609375 -11.769531 16.078125 -10.460938 16.078125 -8.828125 L 16.078125 0 L 11.609375 0 L 11.609375 -7.59375 C 11.609375 -8.40625 11.390625 -9.046875 10.953125 -9.515625 C 10.515625 -9.992188 9.910156 -10.234375 9.140625 -10.234375 C 8.347656 -10.234375 7.695312 -9.972656 7.1875 -9.453125 C 6.675781 -8.929688 6.375 -8.25 6.28125 -7.40625 L 6.28125 0 L 1.796875 0 L 1.796875 -14 L 6.28125 -14 L 6.28125 -11.71875 C 7.269531 -13.34375 8.832031 -14.175781 10.96875 -14.21875 Z M 10.96875 -14.21875 "/></g></g></g><g fill="#170551" fill-opacity="1"><g transform="translate(154.415056, 78.000016)"><g><path d="M 8.96875 -15.59375 L 5.53125 -15.59375 L 8.28125 -19.953125 L 12.34375 -18.53125 Z M 8.078125 -14.21875 C 10.003906 -14.21875 11.5 -13.769531 12.5625 -12.875 C 13.625 -11.976562 14.164062 -10.734375 14.1875 -9.140625 L 14.1875 0 L 9.796875 0 L 9.796875 -1.609375 C 8.878906 -0.398438 7.453125 0.203125 5.515625 0.203125 C 4.035156 0.203125 2.863281 -0.203125 2 -1.015625 C 1.132812 -1.828125 0.703125 -2.882812 0.703125 -4.1875 C 0.703125 -5.519531 1.164062 -6.550781 2.09375 -7.28125 C 3.019531 -8.019531 4.347656 -8.398438 6.078125 -8.421875 L 9.765625 -8.421875 L 9.765625 -8.625 C 9.765625 -9.320312 9.535156 -9.863281 9.078125 -10.25 C 8.617188 -10.632812 7.941406 -10.828125 7.046875 -10.828125 C 5.773438 -10.828125 4.378906 -10.441406 2.859375 -9.671875 L 1.578125 -12.625 C 3.847656 -13.6875 6.015625 -14.21875 8.078125 -14.21875 Z M 6.890625 -2.828125 C 7.597656 -2.828125 8.21875 -3.003906 8.75 -3.359375 C 9.289062 -3.710938 9.628906 -4.175781 9.765625 -4.75 L 9.765625 -6 L 6.9375 -6 C 5.582031 -6 4.90625 -5.5 4.90625 -4.5 C 4.90625 -3.976562 5.078125 -3.566406 5.421875 -3.265625 C 5.773438 -2.972656 6.265625 -2.828125 6.890625 -2.828125 Z M 6.890625 -2.828125 "/></g></g></g><g fill="#170551" fill-opacity="1"><g transform="translate(174.23117, 78.000016)"><g><path d="M 6.421875 0 L 1.921875 0 L 1.921875 -19.28125 L 6.421875 -19.28125 Z M 6.421875 0 "/></g></g></g><g fill="#170551" fill-opacity="1"><g transform="translate(186.801989, 78.000016)"><g><path d="M 2.34375 -19.734375 C 2.789062 -20.171875 3.359375 -20.390625 4.046875 -20.390625 C 4.742188 -20.390625 5.3125 -20.171875 5.75 -19.734375 C 6.195312 -19.296875 6.421875 -18.726562 6.421875 -18.03125 C 6.421875 -17.34375 6.195312 -16.769531 5.75 -16.3125 C 5.3125 -15.863281 4.742188 -15.640625 4.046875 -15.640625 C 3.359375 -15.640625 2.789062 -15.863281 2.34375 -16.3125 C 1.90625 -16.769531 1.6875 -17.34375 1.6875 -18.03125 C 1.6875 -18.726562 1.90625 -19.296875 2.34375 -19.734375 Z M 6.265625 0 L 1.796875 0 L 1.796875 -14 L 6.265625 -14 Z M 6.265625 0 "/></g></g></g><g fill="#170551" fill-opacity="1"><g transform="translate(199.113119, 78.000016)"><g><path d="M 6.8125 -14.21875 C 8.875 -14.21875 10.796875 -13.6875 12.578125 -12.625 L 11.046875 -9.71875 C 9.304688 -10.65625 7.832031 -11.125 6.625 -11.125 C 5.707031 -11.125 5.25 -10.800781 5.25 -10.15625 C 5.25 -9.8125 5.5 -9.519531 6 -9.28125 C 6.5 -9.050781 7.113281 -8.835938 7.84375 -8.640625 C 8.570312 -8.453125 9.296875 -8.21875 10.015625 -7.9375 C 10.734375 -7.65625 11.34375 -7.203125 11.84375 -6.578125 C 12.351562 -5.953125 12.609375 -5.1875 12.609375 -4.28125 C 12.609375 -2.882812 12.0625 -1.789062 10.96875 -1 C 9.875 -0.207031 8.453125 0.1875 6.703125 0.1875 C 4.222656 0.1875 2.128906 -0.472656 0.421875 -1.796875 L 1.84375 -4.65625 C 3.488281 -3.488281 5.144531 -2.90625 6.8125 -2.90625 C 7.832031 -2.90625 8.34375 -3.226562 8.34375 -3.875 C 8.34375 -4.238281 8.09375 -4.539062 7.59375 -4.78125 C 7.101562 -5.019531 6.503906 -5.234375 5.796875 -5.421875 C 5.085938 -5.617188 4.375 -5.859375 3.65625 -6.140625 C 2.945312 -6.429688 2.347656 -6.878906 1.859375 -7.484375 C 1.367188 -8.085938 1.125 -8.847656 1.125 -9.765625 C 1.125 -11.171875 1.648438 -12.265625 2.703125 -13.046875 C 3.753906 -13.828125 5.125 -14.21875 6.8125 -14.21875 Z M 6.8125 -14.21875 "/></g></g></g><g fill="#170551" fill-opacity="1"><g transform="translate(216.669945, 78.000016)"><g><path d="M 7.921875 -14.15625 C 10.347656 -14.15625 12.171875 -13.410156 13.390625 -11.921875 C 14.617188 -10.429688 15.15625 -8.390625 15 -5.796875 L 5.140625 -5.796875 C 5.367188 -4.960938 5.769531 -4.320312 6.34375 -3.875 C 6.914062 -3.425781 7.613281 -3.203125 8.4375 -3.203125 C 9.726562 -3.203125 10.847656 -3.675781 11.796875 -4.625 L 14.15625 -2.3125 C 12.65625 -0.664062 10.625 0.15625 8.0625 0.15625 C 5.789062 0.15625 3.984375 -0.488281 2.640625 -1.78125 C 1.296875 -3.082031 0.625 -4.8125 0.625 -6.96875 C 0.625 -9.132812 1.296875 -10.875 2.640625 -12.1875 C 3.984375 -13.5 5.742188 -14.15625 7.921875 -14.15625 Z M 5.0625 -8.21875 L 10.671875 -8.21875 C 10.671875 -9.0625 10.425781 -9.742188 9.9375 -10.265625 C 9.445312 -10.785156 8.796875 -11.046875 7.984375 -11.046875 C 7.210938 -11.046875 6.566406 -10.789062 6.046875 -10.28125 C 5.535156 -9.769531 5.207031 -9.082031 5.0625 -8.21875 Z M 5.0625 -8.21875 "/></g></g></g><g fill="#170551" fill-opacity="1"><g transform="translate(246.797603, 78.000016)"><g><path d="M 15.90625 -19.28125 L 15.90625 0 L 11.40625 0 L 11.40625 -1.84375 C 10.382812 -0.488281 8.984375 0.1875 7.203125 0.1875 C 5.222656 0.1875 3.632812 -0.476562 2.4375 -1.8125 C 1.25 -3.144531 0.65625 -4.894531 0.65625 -7.0625 C 0.65625 -9.21875 1.242188 -10.941406 2.421875 -12.234375 C 3.597656 -13.535156 5.15625 -14.1875 7.09375 -14.1875 C 8.945312 -14.1875 10.382812 -13.507812 11.40625 -12.15625 L 11.40625 -19.28125 Z M 6.03125 -4.3125 C 6.601562 -3.632812 7.351562 -3.296875 8.28125 -3.296875 C 9.21875 -3.296875 9.972656 -3.632812 10.546875 -4.3125 C 11.117188 -4.988281 11.40625 -5.875 11.40625 -6.96875 C 11.40625 -8.039062 11.117188 -8.914062 10.546875 -9.59375 C 9.972656 -10.269531 9.21875 -10.609375 8.28125 -10.609375 C 7.351562 -10.609375 6.601562 -10.269531 6.03125 -9.59375 C 5.457031 -8.925781 5.160156 -8.050781 5.140625 -6.96875 C 5.160156 -5.875 5.457031 -4.988281 6.03125 -4.3125 Z M 6.03125 -4.3125 "/></g></g></g><g fill="#170551" fill-opacity="1"><g transform="translate(268.847036, 78.000016)"><g><path d="M 7.921875 -14.15625 C 10.347656 -14.15625 12.171875 -13.410156 13.390625 -11.921875 C 14.617188 -10.429688 15.15625 -8.390625 15 -5.796875 L 5.140625 -5.796875 C 5.367188 -4.960938 5.769531 -4.320312 6.34375 -3.875 C 6.914062 -3.425781 7.613281 -3.203125 8.4375 -3.203125 C 9.726562 -3.203125 10.847656 -3.675781 11.796875 -4.625 L 14.15625 -2.3125 C 12.65625 -0.664062 10.625 0.15625 8.0625 0.15625 C 5.789062 0.15625 3.984375 -0.488281 2.640625 -1.78125 C 1.296875 -3.082031 0.625 -4.8125 0.625 -6.96875 C 0.625 -9.132812 1.296875 -10.875 2.640625 -12.1875 C 3.984375 -13.5 5.742188 -14.15625 7.921875 -14.15625 Z M 5.0625 -8.21875 L 10.671875 -8.21875 C 10.671875 -9.0625 10.425781 -9.742188 9.9375 -10.265625 C 9.445312 -10.785156 8.796875 -11.046875 7.984375 -11.046875 C 7.210938 -11.046875 6.566406 -10.789062 6.046875 -10.28125 C 5.535156 -9.769531 5.207031 -9.082031 5.0625 -8.21875 Z M 5.0625 -8.21875 "/></g></g></g><g fill="#170551" fill-opacity="1"><g transform="translate(298.974693, 78.000016)"><g><path d="M 15.71875 -14.46875 L 10.234375 -14.46875 L 10.234375 0 L 5.609375 0 L 5.609375 -14.46875 L 0.1875 -14.46875 L 0.1875 -18.21875 L 15.71875 -18.21875 Z M 15.71875 -14.46875 "/></g></g></g><g fill="#170551" fill-opacity="1"><g transform="translate(319.076457, 78.000016)"><g><path d="M 6.28125 -14 L 6.28125 -11.640625 C 7.269531 -13.316406 8.785156 -14.175781 10.828125 -14.21875 L 10.828125 -10.15625 C 9.546875 -10.28125 8.5 -10.066406 7.6875 -9.515625 C 6.875 -8.972656 6.40625 -8.203125 6.28125 -7.203125 L 6.28125 0 L 1.796875 0 L 1.796875 -14 Z M 6.28125 -14 "/></g></g></g><g fill="#170551" fill-opacity="1"><g transform="translate(334.399958, 78.000016)"><g><path d="M 7.921875 -14.15625 C 10.347656 -14.15625 12.171875 -13.410156 13.390625 -11.921875 C 14.617188 -10.429688 15.15625 -8.390625 15 -5.796875 L 5.140625 -5.796875 C 5.367188 -4.960938 5.769531 -4.320312 6.34375 -3.875 C 6.914062 -3.425781 7.613281 -3.203125 8.4375 -3.203125 C 9.726562 -3.203125 10.847656 -3.675781 11.796875 -4.625 L 14.15625 -2.3125 C 12.65625 -0.664062 10.625 0.15625 8.0625 0.15625 C 5.789062 0.15625 3.984375 -0.488281 2.640625 -1.78125 C 1.296875 -3.082031 0.625 -4.8125 0.625 -6.96875 C 0.625 -9.132812 1.296875 -10.875 2.640625 -12.1875 C 3.984375 -13.5 5.742188 -14.15625 7.921875 -14.15625 Z M 5.0625 -8.21875 L 10.671875 -8.21875 C 10.671875 -9.0625 10.425781 -9.742188 9.9375 -10.265625 C 9.445312 -10.785156 8.796875 -11.046875 7.984375 -11.046875 C 7.210938 -11.046875 6.566406 -10.789062 6.046875 -10.28125 C 5.535156 -9.769531 5.207031 -9.082031 5.0625 -8.21875 Z M 5.0625 -8.21875 "/></g></g></g><g fill="#170551" fill-opacity="1"><g transform="translate(354.267999, 78.000016)"><g><path d="M 2.34375 -19.734375 C 2.789062 -20.171875 3.359375 -20.390625 4.046875 -20.390625 C 4.742188 -20.390625 5.3125 -20.171875 5.75 -19.734375 C 6.195312 -19.296875 6.421875 -18.726562 6.421875 -18.03125 C 6.421875 -17.34375 6.195312 -16.769531 5.75 -16.3125 C 5.3125 -15.863281 4.742188 -15.640625 4.046875 -15.640625 C 3.359375 -15.640625 2.789062 -15.863281 2.34375 -16.3125 C 1.90625 -16.769531 1.6875 -17.34375 1.6875 -18.03125 C 1.6875 -18.726562 1.90625 -19.296875 2.34375 -19.734375 Z M 6.265625 0 L 1.796875 0 L 1.796875 -14 L 6.265625 -14 Z M 6.265625 0 "/></g></g></g><g fill="#170551" fill-opacity="1"><g transform="translate(366.579117, 78.000016)"><g><path d="M 10.96875 -14.21875 C 12.507812 -14.21875 13.742188 -13.726562 14.671875 -12.75 C 15.609375 -11.769531 16.078125 -10.460938 16.078125 -8.828125 L 16.078125 0 L 11.609375 0 L 11.609375 -7.59375 C 11.609375 -8.40625 11.390625 -9.046875 10.953125 -9.515625 C 10.515625 -9.992188 9.910156 -10.234375 9.140625 -10.234375 C 8.347656 -10.234375 7.695312 -9.972656 7.1875 -9.453125 C 6.675781 -8.929688 6.375 -8.25 6.28125 -7.40625 L 6.28125 0 L 1.796875 0 L 1.796875 -14 L 6.28125 -14 L 6.28125 -11.71875 C 7.269531 -13.34375 8.832031 -14.175781 10.96875 -14.21875 Z M 10.96875 -14.21875 "/></g></g></g><g fill="#170551" fill-opacity="1"><g transform="translate(388.290939, 78.000016)"><g><path d="M 8.078125 -14.21875 C 10.003906 -14.21875 11.5 -13.769531 12.5625 -12.875 C 13.625 -11.976562 14.164062 -10.734375 14.1875 -9.140625 L 14.1875 0 L 9.796875 0 L 9.796875 -1.609375 C 8.878906 -0.398438 7.453125 0.203125 5.515625 0.203125 C 4.035156 0.203125 2.863281 -0.203125 2 -1.015625 C 1.132812 -1.828125 0.703125 -2.882812 0.703125 -4.1875 C 0.703125 -5.519531 1.164062 -6.550781 2.09375 -7.28125 C 3.019531 -8.019531 4.347656 -8.398438 6.078125 -8.421875 L 9.765625 -8.421875 L 9.765625 -8.625 C 9.765625 -9.320312 9.535156 -9.863281 9.078125 -10.25 C 8.617188 -10.632812 7.941406 -10.828125 7.046875 -10.828125 C 5.773438 -10.828125 4.378906 -10.441406 2.859375 -9.671875 L 1.578125 -12.625 C 3.847656 -13.6875 6.015625 -14.21875 8.078125 -14.21875 Z M 6.890625 -2.828125 C 7.597656 -2.828125 8.21875 -3.003906 8.75 -3.359375 C 9.289062 -3.710938 9.628906 -4.175781 9.765625 -4.75 L 9.765625 -6 L 6.9375 -6 C 5.582031 -6 4.90625 -5.5 4.90625 -4.5 C 4.90625 -3.976562 5.078125 -3.566406 5.421875 -3.265625 C 5.773438 -2.972656 6.265625 -2.828125 6.890625 -2.828125 Z M 6.890625 -2.828125 "/></g></g></g><g fill="#170551" fill-opacity="1"><g transform="translate(408.107047, 78.000016)"><g><path d="M 20.5 -14.21875 C 22.039062 -14.21875 23.265625 -13.726562 24.171875 -12.75 C 25.085938 -11.769531 25.546875 -10.460938 25.546875 -8.828125 L 25.546875 0 L 21.078125 0 L 21.078125 -7.59375 C 21.078125 -8.414062 20.859375 -9.066406 20.421875 -9.546875 C 19.992188 -10.023438 19.40625 -10.265625 18.65625 -10.265625 C 17.820312 -10.242188 17.15625 -9.925781 16.65625 -9.3125 C 16.164062 -8.695312 15.921875 -7.90625 15.921875 -6.9375 L 15.921875 0 L 11.4375 0 L 11.4375 -7.59375 C 11.4375 -8.414062 11.222656 -9.066406 10.796875 -9.546875 C 10.367188 -10.023438 9.785156 -10.265625 9.046875 -10.265625 C 8.191406 -10.242188 7.515625 -9.921875 7.015625 -9.296875 C 6.515625 -8.671875 6.265625 -7.882812 6.265625 -6.9375 L 6.265625 0 L 1.796875 0 L 1.796875 -14 L 6.265625 -14 L 6.265625 -11.6875 C 7.210938 -13.332031 8.753906 -14.175781 10.890625 -14.21875 C 12.015625 -14.21875 12.988281 -13.9375 13.8125 -13.375 C 14.632812 -12.8125 15.21875 -12.035156 15.5625 -11.046875 C 16.476562 -13.117188 18.125 -14.175781 20.5 -14.21875 Z M 20.5 -14.21875 "/></g></g></g><g fill="#170551" fill-opacity="1"><g transform="translate(439.271504, 78.000016)"><g><path d="M 7.921875 -14.15625 C 10.347656 -14.15625 12.171875 -13.410156 13.390625 -11.921875 C 14.617188 -10.429688 15.15625 -8.390625 15 -5.796875 L 5.140625 -5.796875 C 5.367188 -4.960938 5.769531 -4.320312 6.34375 -3.875 C 6.914062 -3.425781 7.613281 -3.203125 8.4375 -3.203125 C 9.726562 -3.203125 10.847656 -3.675781 11.796875 -4.625 L 14.15625 -2.3125 C 12.65625 -0.664062 10.625 0.15625 8.0625 0.15625 C 5.789062 0.15625 3.984375 -0.488281 2.640625 -1.78125 C 1.296875 -3.082031 0.625 -4.8125 0.625 -6.96875 C 0.625 -9.132812 1.296875 -10.875 2.640625 -12.1875 C 3.984375 -13.5 5.742188 -14.15625 7.921875 -14.15625 Z M 5.0625 -8.21875 L 10.671875 -8.21875 C 10.671875 -9.0625 10.425781 -9.742188 9.9375 -10.265625 C 9.445312 -10.785156 8.796875 -11.046875 7.984375 -11.046875 C 7.210938 -11.046875 6.566406 -10.789062 6.046875 -10.28125 C 5.535156 -9.769531 5.207031 -9.082031 5.0625 -8.21875 Z M 5.0625 -8.21875 "/></g></g></g><g fill="#170551" fill-opacity="1"><g transform="translate(459.139545, 78.000016)"><g><path d="M 10.96875 -14.21875 C 12.507812 -14.21875 13.742188 -13.726562 14.671875 -12.75 C 15.609375 -11.769531 16.078125 -10.460938 16.078125 -8.828125 L 16.078125 0 L 11.609375 0 L 11.609375 -7.59375 C 11.609375 -8.40625 11.390625 -9.046875 10.953125 -9.515625 C 10.515625 -9.992188 9.910156 -10.234375 9.140625 -10.234375 C 8.347656 -10.234375 7.695312 -9.972656 7.1875 -9.453125 C 6.675781 -8.929688 6.375 -8.25 6.28125 -7.40625 L 6.28125 0 L 1.796875 0 L 1.796875 -14 L 6.28125 -14 L 6.28125 -11.71875 C 7.269531 -13.34375 8.832031 -14.175781 10.96875 -14.21875 Z M 10.96875 -14.21875 "/></g></g></g><g fill="#170551" fill-opacity="1"><g transform="translate(480.851367, 78.000016)"><g><path d="M 9.953125 -3.875 L 10.828125 -0.75 C 9.742188 -0.113281 8.5 0.203125 7.09375 0.203125 C 5.707031 0.203125 4.582031 -0.179688 3.71875 -0.953125 C 2.863281 -1.722656 2.4375 -2.816406 2.4375 -4.234375 L 2.4375 -10.421875 L 0.5 -10.421875 L 0.5 -13.359375 L 2.4375 -13.359375 L 2.4375 -17.25 L 6.90625 -17.25 L 6.90625 -13.375 L 10.578125 -13.375 L 10.578125 -10.421875 L 6.90625 -10.421875 L 6.90625 -4.9375 C 6.90625 -4.394531 7.015625 -4 7.234375 -3.75 C 7.453125 -3.5 7.78125 -3.382812 8.21875 -3.40625 C 8.625 -3.40625 9.203125 -3.5625 9.953125 -3.875 Z M 9.953125 -3.875 "/></g></g></g><g fill="#170551" fill-opacity="1"><g transform="translate(496.382624, 78.000016)"><g><path d="M 8.28125 -14.15625 C 10.570312 -14.15625 12.414062 -13.5 13.8125 -12.1875 C 15.21875 -10.882812 15.921875 -9.160156 15.921875 -7.015625 C 15.921875 -4.867188 15.21875 -3.132812 13.8125 -1.8125 C 12.414062 -0.5 10.570312 0.15625 8.28125 0.15625 C 5.976562 0.15625 4.125 -0.5 2.71875 -1.8125 C 1.320312 -3.132812 0.625 -4.867188 0.625 -7.015625 C 0.625 -9.160156 1.320312 -10.882812 2.71875 -12.1875 C 4.125 -13.5 5.976562 -14.15625 8.28125 -14.15625 Z M 8.28125 -10.609375 C 7.351562 -10.609375 6.597656 -10.269531 6.015625 -9.59375 C 5.429688 -8.914062 5.140625 -8.039062 5.140625 -6.96875 C 5.140625 -5.875 5.429688 -4.992188 6.015625 -4.328125 C 6.597656 -3.660156 7.351562 -3.328125 8.28125 -3.328125 C 9.207031 -3.328125 9.957031 -3.660156 10.53125 -4.328125 C 11.113281 -4.992188 11.40625 -5.875 11.40625 -6.96875 C 11.40625 -8.039062 11.113281 -8.914062 10.53125 -9.59375 C 9.957031 -10.269531 9.207031 -10.609375 8.28125 -10.609375 Z M 8.28125 -10.609375 "/></g></g></g></svg>